<?xml version="1.0" encoding="utf-8"?>
<!-- Generator: Adobe Illustrator 28.0.0, SVG Export Plug-In . SVG Version: 6.00 Build 0)  -->
<svg version="1.1" id="Слой_1" xmlns="http://www.w3.org/2000/svg" xmlns:xlink="http://www.w3.org/1999/xlink" x="0px" y="0px"
	 viewBox="0 0 1000 377.55896" enable-background="new 0 0 1000 377.55896" xml:space="preserve">
<g>
	<g>
		<path fill-rule="evenodd" clip-rule="evenodd" fill="#FF5A00" d="M539.7318115,0.09622
			c0,0,2.5354614-0.0869056,5.3287354-0.0956578c2.343811-0.0073437,4.8746338,0.0590313,6.1877441,0.0956578
			c16.2241211,0.4525504,33.4795532,3.9484739,46.3945923,14.5599976
			c10.2824707,8.3906174,14.6422119,22.6212444,12.0921631,35.5362625
			c-1.8917236,9.5422554-6.3339844,18.4263229-11.1051025,26.8989792
			c-9.6243896,16.6986465-21.5521851,31.9991989-32.8217773,47.7106171
			c-2.0565796,2.5500565-3.6195068,5.7583008-3.4550171,9.1309509c0.2467651,2.632431,2.3031616,4.7711945,4.6887207,5.7583008
			c4.6066284,1.8917694,9.7888184,1.4807892,14.6422119,1.233902c15.4649658-1.6453094,30.3539429-6.3340149,45.0785522-11.0227051
			c1.069458-0.6581879,1.480896,0.4936676,1.8918457,1.31604c-15.6293335,10.3648529-32.4924927,19.0841827-50.1785278,25.5005646
			c-9.7888184,3.2902832-20.1537476,6.4164886-30.600647,5.1824799c-5.4293823-0.5758209-10.9407959-3.7840576-12.6681519-9.2953644
			c-2.1386108-7.0743561-1.31604-14.9712982,1.727356-21.7166138c4.6888428-10.5293655,12.0099487-19.4955826,18.8377686-28.6264267
			c11.43396-14.9712982,23.1973877-29.8604507,32.1634521-46.5590935c3.0438843-5.8403397,6.1696167-13.0794296,3.208252-19.5778503
			c-2.7144775-6.0050793-8.8016968-9.5422535-14.5598755-12.2568302
			c-10.2001343-4.5241833-21.1408081-7.3211269-31.916748-10.3648529c-1.6452637,1.0969076-3.2629395,2.1660671-4.8532104,3.2082443
			c3.7015991,2.8789864,7.4856567,5.7581921,11.1872559,8.6371784c-14.1486206,2.5500546-28.2974854,5.4292603-42.2817078,8.9664345
			c-21.2228088,5.3468933-41.952301,12.4212418-62.5173645,19.8247414c1.9742126,4.0309525,4.0309448,8.0614662,5.922699,12.0923119
			c-4.6887207,5.1824799-9.2953796,10.3649597-13.9020386,15.4649658
			c11.1051941,3.3726501,23.1975098,3.8661041,34.5491638,1.3160477
			c9.7067566-2.2211304,18.9197693-6.8274612,26.3232727-13.4907303c-2.0566101-2.5500565-4.6066895-4.6066589-7.3211365-6.2516403
			c9.0484619,0.2468872,17.2746887,8.06147,17.2746887,17.2747955c-1.7550049-0.0003281-3.5097656-0.0006638-5.2648621-0.0006638
			c-0.3838806-1.9742355-0.9320679-3.9208298-1.6452026-5.8403397
			c-10.2825928,9.2953644-23.5264282,15.1357117-37.2637329,16.6166077
			c-12.0921936,1.3984146-24.4310608-0.2468948-35.8651733-4.524292c0.8226929,7.0195084,1.5902405,14.0387955,2.3031616,21.0584183
			c-6.4985352,2.5500565-12.5036011,6.1695938-17.8504944,10.611412
			c-4.2774048,3.7015839-8.5551453,7.9793167-10.1180725,13.5727615
			c-1.6453247,4.9355927,0.9871216,10.5293732,5.2644958,13.1614838c5.1824951,3.2082367,11.2697144,4.7711792,17.356842,5.5937805
			c7.8969421,1.0695953,15.9584351,0.9871063,23.9377441,0.4114075c15.629364-1.1516418,31.1764832-4.1129913,46.3945618-7.8145905
			c1.4808044-0.5758057,2.2211304,1.8918762,0.6582031,2.3031769
			c-12.1743774,6.2516327-24.8424988,11.5164948-38.1687012,14.8891449
			c-12.4212341,3.2902832-25.2537842,4.9355927-38.1687012,5.3468933
			c-13.0794373-0.4113007-27.0634766-2.9613647-37.4281311-11.5164948
			c-7.7324219-6.2516327-11.8454285-16.2052002-11.8454285-26.0763855v-0.49366
			c0.2468872-10.4470062,3.7840881-20.5650787,8.8840637-29.531189
			c6.6629639-12.7501678,14.8891602-24.6779633,24.5956116-35.2893753
			c16.7810059-18.5908432,37.8394165-32.9038391,60.4611206-43.2688065
			C488.8125916,9.1448059,513.9018555,1.4944185,539.7314453,0.09622H539.7318115z"/>
		<path fill-rule="evenodd" clip-rule="evenodd" fill="#FF5A00" d="M77.2713318,219.9530334
			c18.652626,0,37.3051376-0.0276489,55.9576416-0.0823975c24.6048889,51.6786194,49.2101135,103.3575745,73.7328186,155.0361938
			c-18.5977631,0-37.2776947,0-55.8755646,0c-3.7853851-9.3263245-7.5982056-18.6526184-11.4383392-27.9788208
			c-25.6747818,0-51.3495636,0-77.024353,0c-4.0597954,9.3262024-8.1469154,18.6524963-12.2614632,27.9788208
			c-16.7873573,0-33.5747147,0-50.3620758,0c11.8499002-23.782196,23.7823105-47.4819946,35.5497017-71.2639771
			C49.4570961,275.664032,63.4464493,247.8494568,77.2713318,219.9530334L77.2713318,219.9530334z M102.5346603,256.9838562
			c-8.393898,18.7076111-16.7873535,37.3875427-25.1812515,56.0400391c16.3485794,0,32.6697311,0,48.9631271,0
			c-7.8999329-18.6799316-15.8822708-37.360199-23.7822037-56.0400391H102.5346603L102.5346603,256.9838562z
			 M221.0336609,219.9530334c16.293396,0,32.5595703,0,48.7985535,0c0,51.6238708,0,103.275177,0,154.9537964
			c-16.2387543,0-32.5051575,0-48.7985535,0C221.0336609,323.2282104,221.0336609,271.5769043,221.0336609,219.9530334
			L221.0336609,219.9530334z M300.444458,219.9530334c16.2934875,0,32.5872192,0,48.8807068,0
			c0,10.313797,0,20.6275024,0,30.9412994c-16.2934875,0-32.5872192,0-48.8807068,0
			C300.444458,240.5805359,300.444458,230.2668304,300.444458,219.9530334L300.444458,219.9530334z M380.1018982,220.1176147
			c15.964447-0.0550842,31.9291077-0.0550842,47.8935547,0c0,21.0116272,0,41.9956055,0,62.9524841
			c9.2164917-10.0394897,21.8072205-17.198822,35.5497131-18.5978699
			c12.4258118-1.151947,25.5922546,0.9050903,36.2081299,7.8175354c4.85495,3.0448608,9.2164612,7.0770264,12.8374023,11.5208435
			c7.4883423,10.4509583,11.8499146,23.2062683,12.1789551,36.0436707
			c0.3290405,10.6978149-1.1520996,21.724823-6.3365479,31.1881714
			c-3.3739014,6.2539978-8.1467896,11.7674866-13.7423401,16.0468445
			c-9.5458679,6.7478638-21.2309875,10.7799988-32.9988098,10.4509583
			c-11.026886-0.0823975-22.2183228-3.1270752-31.2706604-9.5458679
			c-4.9374695-3.4564514-9.1343079-7.7354736-12.9197998-12.4259338c0,6.4735413,0,12.9197998,0,19.3383789
			c-15.7998657,0-31.5997314,0-47.3995972,0C380.0471497,323.282959,380.0471497,271.6864014,380.1018982,220.1176147
			L380.1018982,220.1176147z M445.6878052,290.1470032c-6.5832825,1.4814758-12.2613525,6.2540283-14.9768677,12.4259644
			c-2.2219543,5.4313965-2.9624634,11.3563538-3.1270447,17.1987915c0.0825195,7.8175354,1.2344666,16.2938538,6.5009766,22.5478516
			c3.5385132,4.7728577,9.5458679,6.7478638,15.141449,7.6529541c7.3238831,1.0698853,14.5654907-2.3040466,19.4207764-7.7353516
			c4.4439087-4.1969604,6.171936-10.286499,7.0770264-16.2114563c0.740509-6.4187927,0.4938354-13.1664429-1.5635376-19.3382568
			c-1.7279968-5.5134888-5.0198669-10.7799988-9.9573059-13.8248901
			C458.6897583,289.4885864,451.8597412,288.6656799,445.6878052,290.1470032L445.6878052,290.1470032z M704.081543,220.1176147
			c15.9644775-0.0550842,31.928772-0.0550842,47.8932495,0c0,21.0116272,0.0276489,41.9956055,0.0823975,62.9524841
			c7.8999634-8.5583801,18.2687988-15.2238159,29.8717651-17.6924438
			c10.7799683-2.3040466,22.3008423-1.3989563,32.6696167,2.3040466
			c11.7674561,4.4438171,21.8071899,13.4134216,27.1561279,24.7696838
			c7.0770264,13.4958191,8.5583496,29.3778687,5.760437,44.1902466
			c-1.8925781,10.1217957-7.0770264,19.5852661-14.4832764,26.7446899
			c-8.3936157,7.9823303-19.6674805,12.6727905-31.105896,13.9072876
			c-11.8499146,1.0698853-24.2757568-1.0699158-34.4796753-7.4064331
			c-6.171936-3.7029724-11.4384766-8.7228394-15.9644775-14.3187256c0.0823975,6.5009766,0.0823975,12.9197998,0.0823975,19.3383789
			c-15.9102173,0-31.7924805,0-47.6471558,0c0-18.7623291,0-37.552124,0-56.3694153
			c0.2470093-32.8342285,0.1644897-65.6684265,0.1644897-98.4201202V220.1176147L704.081543,220.1176147z M769.7496338,290.1470032
			c-7.0770264,1.4814758-13.0019531,6.9124451-15.4708252,13.6604309
			c-1.9749756,5.3489075-2.6334229,10.9447937-2.7154541,16.6227722c0.2468262,6.5009766,0.9874878,13.2489624,4.4437866,18.9269104
			c1.9749756,3.0448914,4.2790527,6.0073547,7.6529541,7.5708923c5.1844482,2.5510254,11.1915894,4.0323792,16.9519653,2.7154846
			c6.4188232-1.4813538,11.6853027-6.171936,15.3062134-11.5208435c4.6906128-9.1343994,5.2665405-19.9968262,2.7156372-29.8717346
			c-1.4815063-5.8424377-4.6084595-11.438324-9.6280518-14.8947754c-5.5958862-3.7853699-12.7548828-4.7728577-19.2558594-3.2093506
			L769.7496338,290.1470032L769.7496338,290.1470032z M582.9491577,265.7066956
			c12.6729126-2.4688416,25.7572632-2.5509949,38.5946655-1.8925781c12.34375,0.9050903,25.0163574,2.7980042,35.9611816,8.7229614
			c5.4312744,3.0448608,10.3687134,7.2414856,13.4957886,12.5903931c3.6209106,6.0895386,4.937439,13.2488708,5.0198975,20.2437134
			c-0.0003662,23.1511841-0.0003662,46.2747192-0.0003662,69.3710632c-14.9768677,0-29.9263916,0-44.8485718,0
			c0-5.26651,0-10.5333557,0-15.7998657c-6.8300171,9.052002-17.4458008,14.4009094-28.3902588,16.458313
			c-12.2614746,2.3864136-25.2633667,2.7155762-37.3602295-0.9050903
			c-5.9249268-1.8924866-11.7675171-4.6904907-16.2113037-9.2164917c-4.6083984-4.6083984-6.994873-11.026886-7.3239136-17.5278625
			c-0.7406006-9.2164917,2.5509033-18.7623596,9.3812866-25.2633362
			c8.5583496-8.1467896,20.2437744-11.849884,31.6821289-13.9072876c15.5529785-2.6334229,31.4352417-2.9624634,47.15271-3.3739319
			c0-5.3489075-1.4814453-11.0269775-5.5134888-14.7299805c-3.7854614-3.5385132-9.2164917-4.6904602-14.3184814-4.6083984
			c-4.3614502-0.0823975-9.0519409,0.9050903-12.2613525,4.0323792c-2.0574341,2.057373-3.3739624,4.7729797-4.1969604,7.4884644
			c-14.8127441-0.0003052-29.6524048-0.0006409-44.5195312-0.0006409
			c1.0698853-6.9124451,3.6209106-13.7423706,8.3938599-19.0092163
			c6.5009155-7.1594238,15.9643555-10.7800293,25.2632446-12.6729126L582.9491577,265.7066956L582.9491577,265.7066956z
			 M608.4594727,326.3551636c-5.1844482,0.822998-10.697937,2.057373-14.6479492,5.7604675
			c-4.5258789,4.1968384-4.2789917,12.672821,0.9050903,16.2113342c3.8676147,2.5509949,8.640564,2.7978821,13.0844116,2.6334229
			c6.171936-0.2470093,12.8374023-1.8105164,17.0343018-6.6654663c4.6083984-5.019989,5.5134277-12.1789551,5.4313354-18.7623596
			c-7.3239136,0-14.5653687,0-21.8071899,0.8229065V326.3551636L608.4594727,326.3551636z M907.4224243,265.6242981
			c13.0020142-2.4689331,26.333252-2.4689331,39.4172974-1.7279968c11.932312,0.9049988,24.1112061,2.8799744,34.7267456,8.5583801
			c5.1843872,2.8799438,9.874939,6.9124451,13.0842896,11.9322815c3.5385132,5.4313354,5.1020508,12.0143738,5.348999,18.5153809
			c0,23.9190063,0.0002441,47.8658142,0.0002441,71.8399048c-14.8673706,0-29.7344971,0-44.6019287,0
			c0-5.26651-0.0823975-10.6154175,0-15.8822632c-6.994812,9.2988586-18.0218506,14.6478882-29.2957153,16.7049561
			c-12.1789551,2.2219543-24.9342651,2.5510254-36.8662109-1.2344666
			c-5.1844482-1.6459351-10.2039795-3.9499817-14.4009399-7.5708923c-4.6083984-3.9499512-7.6529541-9.7103271-8.4759521-15.7174683
			c-1.1519775-7.5707703-0.0823975-15.6352844,3.9499512-22.2186584c4.2791138-6.9948425,11.2739868-11.932312,18.7623291-15.141449
			c11.2739868-4.7728577,23.6998291-6.171936,35.8789062-7.2414856c9.7103271-0.740509,19.5852051-0.9874878,29.3777466-1.2344666
			c-0.2470093-5.0198669-1.3989258-10.3687744-5.0198364-14.1539612c-3.703125-3.8675537-9.2164917-5.1844177-14.3185425-5.1844177
			c-4.7728882-0.0823975-9.874939,0.822998-13.2488403,4.4439087c-1.8925781,1.9750061-2.9624634,4.5260315-3.7855225,7.0769348
			c-14.8123779,0-29.7071533,0-44.5195312,0c0.9874878-6.7478638,3.4564819-13.4133301,8.0645142-18.5977783
			c6.5009155-7.5708618,16.3757935-11.1914673,25.9216919-13.1664429H907.4224243L907.4224243,265.6242981z
			 M932.3566895,326.4373474c-4.937439,0.740509-10.2039185,1.9749756-14.0718384,5.3489075
			c-4.8550415,4.1144409-4.7728882,13.0018616,0.6584473,16.5403748c4.114563,2.7154846,9.3813477,2.8800659,14.1539307,2.6334229
			c5.9249268-0.4114685,12.0968628-2.2219849,16.046814-6.8300476c4.3614502-5.1019287,5.4313354-12.0967712,5.1019287-18.5977478
			C947.0045166,325.5322571,939.680603,325.6146545,932.3566895,326.4373474L932.3566895,326.4373474z M300.444458,267.4346924
			c16.2938232,0,32.5872192,0,48.8810425,0c-0.0003357,35.8241272-0.0003357,71.6481323-0.0003357,107.4721375
			c-16.2934875,0-32.5872192,0-48.8807068,0C300.444458,339.0828247,300.444458,303.2588196,300.444458,267.4346924z"/>
	</g>
</g>
</svg>
